<mxfile host="Electron" modified="2024-02-24T13:20:34.562Z" agent="Mozilla/5.0 (Windows NT 10.0; Win64; x64) AppleWebKit/537.36 (KHTML, like Gecko) draw.io/23.0.2 Chrome/120.0.6099.109 Electron/28.1.0 Safari/537.36" etag="0kObjPJi8t6d3m5ElC8A" version="23.0.2" type="device">
  <diagram id="R2lEEEUBdFMjLlhIrx00" name="Page-1">
    <mxGraphModel dx="2643" dy="1045" grid="1" gridSize="10" guides="1" tooltips="1" connect="1" arrows="1" fold="1" page="1" pageScale="1" pageWidth="850" pageHeight="1100" math="0" shadow="0" extFonts="Permanent Marker^https://fonts.googleapis.com/css?family=Permanent+Marker">
      <root>
        <mxCell id="0" />
        <mxCell id="1" parent="0" />
        <mxCell id="U3T1-o6_RSGCVByQ93NV-17" style="edgeStyle=orthogonalEdgeStyle;rounded=0;orthogonalLoop=1;jettySize=auto;html=1;exitX=0.25;exitY=0;exitDx=0;exitDy=0;entryX=0.75;entryY=0;entryDx=0;entryDy=0;endArrow=ERzeroToMany;endFill=0;startArrow=ERone;startFill=0;" parent="1" source="O0OFPvEYjbLhxSQQV8Em-1" target="O0OFPvEYjbLhxSQQV8Em-23" edge="1">
          <mxGeometry relative="1" as="geometry">
            <Array as="points">
              <mxPoint x="667" y="140" />
              <mxPoint x="403" y="140" />
            </Array>
          </mxGeometry>
        </mxCell>
        <mxCell id="kiQ_7PnlWE18CKEF-a6Q-18" style="edgeStyle=orthogonalEdgeStyle;rounded=0;orthogonalLoop=1;jettySize=auto;html=1;exitX=0.5;exitY=0;exitDx=0;exitDy=0;entryX=0.5;entryY=0;entryDx=0;entryDy=0;endArrow=ERzeroToMany;endFill=0;startArrow=ERone;startFill=0;" edge="1" parent="1" source="O0OFPvEYjbLhxSQQV8Em-1" target="O0OFPvEYjbLhxSQQV8Em-58">
          <mxGeometry relative="1" as="geometry">
            <Array as="points">
              <mxPoint x="700" y="120" />
              <mxPoint x="-180" y="120" />
            </Array>
          </mxGeometry>
        </mxCell>
        <mxCell id="kiQ_7PnlWE18CKEF-a6Q-19" style="edgeStyle=orthogonalEdgeStyle;rounded=0;orthogonalLoop=1;jettySize=auto;html=1;exitX=0.75;exitY=0;exitDx=0;exitDy=0;entryX=0.25;entryY=0;entryDx=0;entryDy=0;endArrow=ERzeroToMany;endFill=0;startArrow=ERone;startFill=0;" edge="1" parent="1" source="O0OFPvEYjbLhxSQQV8Em-1" target="O0OFPvEYjbLhxSQQV8Em-75">
          <mxGeometry relative="1" as="geometry">
            <Array as="points">
              <mxPoint x="725" y="100" />
              <mxPoint x="-630" y="100" />
            </Array>
          </mxGeometry>
        </mxCell>
        <mxCell id="O0OFPvEYjbLhxSQQV8Em-1" value="admin" style="swimlane;fontStyle=0;childLayout=stackLayout;horizontal=1;startSize=26;horizontalStack=0;resizeParent=1;resizeParentMax=0;resizeLast=0;collapsible=1;marginBottom=0;align=center;fontSize=14;" parent="1" vertex="1">
          <mxGeometry x="650" y="186" width="100" height="206" as="geometry" />
        </mxCell>
        <mxCell id="O0OFPvEYjbLhxSQQV8Em-2" value="_id&amp;nbsp; &amp;nbsp; &amp;nbsp; &amp;nbsp; ObjectId" style="text;strokeColor=none;fillColor=none;spacingLeft=4;spacingRight=4;overflow=hidden;rotatable=0;points=[[0,0.5],[1,0.5]];portConstraint=eastwest;fontSize=12;whiteSpace=wrap;html=1;" parent="O0OFPvEYjbLhxSQQV8Em-1" vertex="1">
          <mxGeometry y="26" width="100" height="30" as="geometry" />
        </mxCell>
        <mxCell id="O0OFPvEYjbLhxSQQV8Em-3" value="emp_id ObjectId" style="text;strokeColor=none;fillColor=none;spacingLeft=4;spacingRight=4;overflow=hidden;rotatable=0;points=[[0,0.5],[1,0.5]];portConstraint=eastwest;fontSize=12;whiteSpace=wrap;html=1;" parent="O0OFPvEYjbLhxSQQV8Em-1" vertex="1">
          <mxGeometry y="56" width="100" height="30" as="geometry" />
        </mxCell>
        <mxCell id="O0OFPvEYjbLhxSQQV8Em-4" value="dept&amp;nbsp; &amp;nbsp; &amp;nbsp; &amp;nbsp; &amp;nbsp; &amp;nbsp;Int32" style="text;strokeColor=none;fillColor=none;spacingLeft=4;spacingRight=4;overflow=hidden;rotatable=0;points=[[0,0.5],[1,0.5]];portConstraint=eastwest;fontSize=12;whiteSpace=wrap;html=1;" parent="O0OFPvEYjbLhxSQQV8Em-1" vertex="1">
          <mxGeometry y="86" width="100" height="30" as="geometry" />
        </mxCell>
        <mxCell id="O0OFPvEYjbLhxSQQV8Em-6" value="role&amp;nbsp; &amp;nbsp; &amp;nbsp; &amp;nbsp; &amp;nbsp; &amp;nbsp; &amp;nbsp; &amp;nbsp;Str" style="text;strokeColor=none;fillColor=none;spacingLeft=4;spacingRight=4;overflow=hidden;rotatable=0;points=[[0,0.5],[1,0.5]];portConstraint=eastwest;fontSize=12;whiteSpace=wrap;html=1;" parent="O0OFPvEYjbLhxSQQV8Em-1" vertex="1">
          <mxGeometry y="116" width="100" height="30" as="geometry" />
        </mxCell>
        <mxCell id="O0OFPvEYjbLhxSQQV8Em-9" value="profile&amp;nbsp; &amp;nbsp; &amp;nbsp; &amp;nbsp; Array" style="text;strokeColor=none;fillColor=none;spacingLeft=4;spacingRight=4;overflow=hidden;rotatable=0;points=[[0,0.5],[1,0.5]];portConstraint=eastwest;fontSize=12;whiteSpace=wrap;html=1;" parent="O0OFPvEYjbLhxSQQV8Em-1" vertex="1">
          <mxGeometry y="146" width="100" height="30" as="geometry" />
        </mxCell>
        <mxCell id="O0OFPvEYjbLhxSQQV8Em-10" value="address&amp;nbsp; &amp;nbsp; &amp;nbsp;Array" style="text;strokeColor=none;fillColor=none;spacingLeft=4;spacingRight=4;overflow=hidden;rotatable=0;points=[[0,0.5],[1,0.5]];portConstraint=eastwest;fontSize=12;whiteSpace=wrap;html=1;" parent="O0OFPvEYjbLhxSQQV8Em-1" vertex="1">
          <mxGeometry y="176" width="100" height="30" as="geometry" />
        </mxCell>
        <mxCell id="U3T1-o6_RSGCVByQ93NV-1" style="edgeStyle=orthogonalEdgeStyle;rounded=0;orthogonalLoop=1;jettySize=auto;html=1;exitX=0.5;exitY=0;exitDx=0;exitDy=0;entryX=1;entryY=0.5;entryDx=0;entryDy=0;endArrow=ERone;endFill=0;startArrow=ERmany;startFill=0;" parent="1" source="O0OFPvEYjbLhxSQQV8Em-11" target="O0OFPvEYjbLhxSQQV8Em-9" edge="1">
          <mxGeometry relative="1" as="geometry" />
        </mxCell>
        <mxCell id="O0OFPvEYjbLhxSQQV8Em-11" value="profile" style="swimlane;fontStyle=0;childLayout=stackLayout;horizontal=1;startSize=26;horizontalStack=0;resizeParent=1;resizeParentMax=0;resizeLast=0;collapsible=1;marginBottom=0;align=center;fontSize=14;" parent="1" vertex="1">
          <mxGeometry x="730" y="544" width="90" height="146" as="geometry" />
        </mxCell>
        <mxCell id="kiQ_7PnlWE18CKEF-a6Q-36" value="firstname&amp;nbsp; &amp;nbsp; Str" style="text;strokeColor=none;fillColor=none;spacingLeft=4;spacingRight=4;overflow=hidden;rotatable=0;points=[[0,0.5],[1,0.5]];portConstraint=eastwest;fontSize=12;whiteSpace=wrap;html=1;" vertex="1" parent="O0OFPvEYjbLhxSQQV8Em-11">
          <mxGeometry y="26" width="90" height="30" as="geometry" />
        </mxCell>
        <mxCell id="O0OFPvEYjbLhxSQQV8Em-13" value="lastname&amp;nbsp; &amp;nbsp; Str" style="text;strokeColor=none;fillColor=none;spacingLeft=4;spacingRight=4;overflow=hidden;rotatable=0;points=[[0,0.5],[1,0.5]];portConstraint=eastwest;fontSize=12;whiteSpace=wrap;html=1;" parent="O0OFPvEYjbLhxSQQV8Em-11" vertex="1">
          <mxGeometry y="56" width="90" height="30" as="geometry" />
        </mxCell>
        <mxCell id="O0OFPvEYjbLhxSQQV8Em-14" value="email&amp;nbsp; &amp;nbsp; &amp;nbsp; &amp;nbsp; &amp;nbsp; Str" style="text;strokeColor=none;fillColor=none;spacingLeft=4;spacingRight=4;overflow=hidden;rotatable=0;points=[[0,0.5],[1,0.5]];portConstraint=eastwest;fontSize=12;whiteSpace=wrap;html=1;" parent="O0OFPvEYjbLhxSQQV8Em-11" vertex="1">
          <mxGeometry y="86" width="90" height="30" as="geometry" />
        </mxCell>
        <mxCell id="O0OFPvEYjbLhxSQQV8Em-15" value="tel&amp;nbsp; &amp;nbsp; &amp;nbsp; &amp;nbsp; &amp;nbsp; &amp;nbsp; &amp;nbsp; &amp;nbsp;Str" style="text;strokeColor=none;fillColor=none;spacingLeft=4;spacingRight=4;overflow=hidden;rotatable=0;points=[[0,0.5],[1,0.5]];portConstraint=eastwest;fontSize=12;whiteSpace=wrap;html=1;" parent="O0OFPvEYjbLhxSQQV8Em-11" vertex="1">
          <mxGeometry y="116" width="90" height="30" as="geometry" />
        </mxCell>
        <mxCell id="U3T1-o6_RSGCVByQ93NV-2" style="edgeStyle=orthogonalEdgeStyle;rounded=0;orthogonalLoop=1;jettySize=auto;html=1;exitX=0.5;exitY=0;exitDx=0;exitDy=0;entryX=0;entryY=0.5;entryDx=0;entryDy=0;endArrow=ERone;endFill=0;startArrow=ERmany;startFill=0;" parent="1" source="O0OFPvEYjbLhxSQQV8Em-16" target="O0OFPvEYjbLhxSQQV8Em-10" edge="1">
          <mxGeometry relative="1" as="geometry" />
        </mxCell>
        <mxCell id="O0OFPvEYjbLhxSQQV8Em-16" value="address" style="swimlane;fontStyle=0;childLayout=stackLayout;horizontal=1;startSize=26;horizontalStack=0;resizeParent=1;resizeParentMax=0;resizeLast=0;collapsible=1;marginBottom=0;align=center;fontSize=14;" parent="1" vertex="1">
          <mxGeometry x="560" y="544" width="80" height="206" as="geometry" />
        </mxCell>
        <mxCell id="O0OFPvEYjbLhxSQQV8Em-17" value="country&amp;nbsp; &amp;nbsp; Str" style="text;strokeColor=none;fillColor=none;spacingLeft=4;spacingRight=4;overflow=hidden;rotatable=0;points=[[0,0.5],[1,0.5]];portConstraint=eastwest;fontSize=12;whiteSpace=wrap;html=1;" parent="O0OFPvEYjbLhxSQQV8Em-16" vertex="1">
          <mxGeometry y="26" width="80" height="30" as="geometry" />
        </mxCell>
        <mxCell id="O0OFPvEYjbLhxSQQV8Em-18" value="street1&amp;nbsp; &amp;nbsp; &amp;nbsp;Str" style="text;strokeColor=none;fillColor=none;spacingLeft=4;spacingRight=4;overflow=hidden;rotatable=0;points=[[0,0.5],[1,0.5]];portConstraint=eastwest;fontSize=12;whiteSpace=wrap;html=1;" parent="O0OFPvEYjbLhxSQQV8Em-16" vertex="1">
          <mxGeometry y="56" width="80" height="30" as="geometry" />
        </mxCell>
        <mxCell id="O0OFPvEYjbLhxSQQV8Em-19" value="street2&amp;nbsp; &amp;nbsp; &amp;nbsp;Str" style="text;strokeColor=none;fillColor=none;spacingLeft=4;spacingRight=4;overflow=hidden;rotatable=0;points=[[0,0.5],[1,0.5]];portConstraint=eastwest;fontSize=12;whiteSpace=wrap;html=1;" parent="O0OFPvEYjbLhxSQQV8Em-16" vertex="1">
          <mxGeometry y="86" width="80" height="30" as="geometry" />
        </mxCell>
        <mxCell id="O0OFPvEYjbLhxSQQV8Em-20" value="city&amp;nbsp; &amp;nbsp; &amp;nbsp; &amp;nbsp; &amp;nbsp; &amp;nbsp;Str" style="text;strokeColor=none;fillColor=none;spacingLeft=4;spacingRight=4;overflow=hidden;rotatable=0;points=[[0,0.5],[1,0.5]];portConstraint=eastwest;fontSize=12;whiteSpace=wrap;html=1;" parent="O0OFPvEYjbLhxSQQV8Em-16" vertex="1">
          <mxGeometry y="116" width="80" height="30" as="geometry" />
        </mxCell>
        <mxCell id="O0OFPvEYjbLhxSQQV8Em-21" value="province&amp;nbsp; Str" style="text;strokeColor=none;fillColor=none;spacingLeft=4;spacingRight=4;overflow=hidden;rotatable=0;points=[[0,0.5],[1,0.5]];portConstraint=eastwest;fontSize=12;whiteSpace=wrap;html=1;" parent="O0OFPvEYjbLhxSQQV8Em-16" vertex="1">
          <mxGeometry y="146" width="80" height="30" as="geometry" />
        </mxCell>
        <mxCell id="O0OFPvEYjbLhxSQQV8Em-22" value="zip&amp;nbsp; &amp;nbsp; &amp;nbsp; &amp;nbsp; &amp;nbsp; &amp;nbsp;Str" style="text;strokeColor=none;fillColor=none;spacingLeft=4;spacingRight=4;overflow=hidden;rotatable=0;points=[[0,0.5],[1,0.5]];portConstraint=eastwest;fontSize=12;whiteSpace=wrap;html=1;" parent="O0OFPvEYjbLhxSQQV8Em-16" vertex="1">
          <mxGeometry y="176" width="80" height="30" as="geometry" />
        </mxCell>
        <mxCell id="U3T1-o6_RSGCVByQ93NV-21" style="edgeStyle=orthogonalEdgeStyle;rounded=0;orthogonalLoop=1;jettySize=auto;html=1;exitX=0;exitY=0;exitDx=0;exitDy=0;entryX=0.5;entryY=0;entryDx=0;entryDy=0;startArrow=ERone;startFill=0;endArrow=ERzeroToMany;endFill=0;" parent="1" source="O0OFPvEYjbLhxSQQV8Em-23" target="O0OFPvEYjbLhxSQQV8Em-75" edge="1">
          <mxGeometry relative="1" as="geometry">
            <Array as="points">
              <mxPoint x="320" y="170" />
              <mxPoint x="210" y="170" />
              <mxPoint x="210" y="830" />
              <mxPoint x="-350" y="830" />
              <mxPoint x="-350" y="190" />
              <mxPoint x="-590" y="190" />
            </Array>
          </mxGeometry>
        </mxCell>
        <mxCell id="kiQ_7PnlWE18CKEF-a6Q-30" style="edgeStyle=orthogonalEdgeStyle;rounded=0;orthogonalLoop=1;jettySize=auto;html=1;exitX=0.25;exitY=0;exitDx=0;exitDy=0;entryX=0.5;entryY=0;entryDx=0;entryDy=0;endArrow=ERzeroToMany;endFill=0;startArrow=ERone;startFill=0;" edge="1" parent="1" source="O0OFPvEYjbLhxSQQV8Em-23" target="O0OFPvEYjbLhxSQQV8Em-44">
          <mxGeometry relative="1" as="geometry">
            <Array as="points">
              <mxPoint x="355" y="150" />
              <mxPoint x="60" y="150" />
            </Array>
          </mxGeometry>
        </mxCell>
        <mxCell id="O0OFPvEYjbLhxSQQV8Em-23" value="user" style="swimlane;fontStyle=0;childLayout=stackLayout;horizontal=1;startSize=26;horizontalStack=0;resizeParent=1;resizeParentMax=0;resizeLast=0;collapsible=1;marginBottom=0;align=center;fontSize=14;" parent="1" vertex="1">
          <mxGeometry x="320" y="186" width="140" height="296" as="geometry" />
        </mxCell>
        <mxCell id="O0OFPvEYjbLhxSQQV8Em-24" value="_id&amp;nbsp; &amp;nbsp; &amp;nbsp; &amp;nbsp; &amp;nbsp; &amp;nbsp; &amp;nbsp; &amp;nbsp; &amp;nbsp; &amp;nbsp; ObjectId" style="text;strokeColor=none;fillColor=none;spacingLeft=4;spacingRight=4;overflow=hidden;rotatable=0;points=[[0,0.5],[1,0.5]];portConstraint=eastwest;fontSize=12;whiteSpace=wrap;html=1;" parent="O0OFPvEYjbLhxSQQV8Em-23" vertex="1">
          <mxGeometry y="26" width="140" height="30" as="geometry" />
        </mxCell>
        <mxCell id="O0OFPvEYjbLhxSQQV8Em-25" value="username&amp;nbsp; &amp;nbsp; &amp;nbsp; &amp;nbsp; &amp;nbsp; &amp;nbsp; &amp;nbsp; &amp;nbsp; Str" style="text;strokeColor=none;fillColor=none;spacingLeft=4;spacingRight=4;overflow=hidden;rotatable=0;points=[[0,0.5],[1,0.5]];portConstraint=eastwest;fontSize=12;whiteSpace=wrap;html=1;" parent="O0OFPvEYjbLhxSQQV8Em-23" vertex="1">
          <mxGeometry y="56" width="140" height="30" as="geometry" />
        </mxCell>
        <mxCell id="O0OFPvEYjbLhxSQQV8Em-26" value="password&amp;nbsp; &amp;nbsp; &amp;nbsp; &amp;nbsp; &amp;nbsp; &amp;nbsp; &amp;nbsp; &amp;nbsp; &amp;nbsp;Str" style="text;strokeColor=none;fillColor=none;spacingLeft=4;spacingRight=4;overflow=hidden;rotatable=0;points=[[0,0.5],[1,0.5]];portConstraint=eastwest;fontSize=12;whiteSpace=wrap;html=1;" parent="O0OFPvEYjbLhxSQQV8Em-23" vertex="1">
          <mxGeometry y="86" width="140" height="30" as="geometry" />
        </mxCell>
        <mxCell id="O0OFPvEYjbLhxSQQV8Em-27" value="email&amp;nbsp; &amp;nbsp; &amp;nbsp; &amp;nbsp; &amp;nbsp; &amp;nbsp; &amp;nbsp; &amp;nbsp; &amp;nbsp; &amp;nbsp; &amp;nbsp; &amp;nbsp; Str" style="text;strokeColor=none;fillColor=none;spacingLeft=4;spacingRight=4;overflow=hidden;rotatable=0;points=[[0,0.5],[1,0.5]];portConstraint=eastwest;fontSize=12;whiteSpace=wrap;html=1;" parent="O0OFPvEYjbLhxSQQV8Em-23" vertex="1">
          <mxGeometry y="116" width="140" height="30" as="geometry" />
        </mxCell>
        <mxCell id="O0OFPvEYjbLhxSQQV8Em-28" value="profile&amp;nbsp; &amp;nbsp; &amp;nbsp; &amp;nbsp; &amp;nbsp; &amp;nbsp; &amp;nbsp; &amp;nbsp; &amp;nbsp; Object" style="text;strokeColor=none;fillColor=none;spacingLeft=4;spacingRight=4;overflow=hidden;rotatable=0;points=[[0,0.5],[1,0.5]];portConstraint=eastwest;fontSize=12;whiteSpace=wrap;html=1;" parent="O0OFPvEYjbLhxSQQV8Em-23" vertex="1">
          <mxGeometry y="146" width="140" height="30" as="geometry" />
        </mxCell>
        <mxCell id="O0OFPvEYjbLhxSQQV8Em-29" value="address&amp;nbsp; &amp;nbsp; &amp;nbsp; &amp;nbsp; &amp;nbsp; &amp;nbsp; &amp;nbsp; &amp;nbsp;Object" style="text;strokeColor=none;fillColor=none;spacingLeft=4;spacingRight=4;overflow=hidden;rotatable=0;points=[[0,0.5],[1,0.5]];portConstraint=eastwest;fontSize=12;whiteSpace=wrap;html=1;" parent="O0OFPvEYjbLhxSQQV8Em-23" vertex="1">
          <mxGeometry y="176" width="140" height="30" as="geometry" />
        </mxCell>
        <mxCell id="O0OFPvEYjbLhxSQQV8Em-30" value="status&amp;nbsp; &amp;nbsp; &amp;nbsp; &amp;nbsp; &amp;nbsp; &amp;nbsp; &amp;nbsp; &amp;nbsp; &amp;nbsp; &amp;nbsp; &amp;nbsp; &amp;nbsp; Str" style="text;strokeColor=none;fillColor=none;spacingLeft=4;spacingRight=4;overflow=hidden;rotatable=0;points=[[0,0.5],[1,0.5]];portConstraint=eastwest;fontSize=12;whiteSpace=wrap;html=1;" parent="O0OFPvEYjbLhxSQQV8Em-23" vertex="1">
          <mxGeometry y="206" width="140" height="30" as="geometry" />
        </mxCell>
        <mxCell id="O0OFPvEYjbLhxSQQV8Em-31" value="shippingaddress&amp;nbsp; Object" style="text;strokeColor=none;fillColor=none;spacingLeft=4;spacingRight=4;overflow=hidden;rotatable=0;points=[[0,0.5],[1,0.5]];portConstraint=eastwest;fontSize=12;whiteSpace=wrap;html=1;" parent="O0OFPvEYjbLhxSQQV8Em-23" vertex="1">
          <mxGeometry y="236" width="140" height="30" as="geometry" />
        </mxCell>
        <mxCell id="O0OFPvEYjbLhxSQQV8Em-110" value="userreview&amp;nbsp; &amp;nbsp; &amp;nbsp; &amp;nbsp; &amp;nbsp; &amp;nbsp; Array" style="text;strokeColor=none;fillColor=none;spacingLeft=4;spacingRight=4;overflow=hidden;rotatable=0;points=[[0,0.5],[1,0.5]];portConstraint=eastwest;fontSize=12;whiteSpace=wrap;html=1;" parent="O0OFPvEYjbLhxSQQV8Em-23" vertex="1">
          <mxGeometry y="266" width="140" height="30" as="geometry" />
        </mxCell>
        <mxCell id="U3T1-o6_RSGCVByQ93NV-5" style="edgeStyle=orthogonalEdgeStyle;rounded=0;orthogonalLoop=1;jettySize=auto;html=1;exitX=0.5;exitY=0;exitDx=0;exitDy=0;entryX=0;entryY=0.5;entryDx=0;entryDy=0;endArrow=ERone;endFill=0;startArrow=ERoneToMany;startFill=0;" parent="1" source="O0OFPvEYjbLhxSQQV8Em-32" target="O0OFPvEYjbLhxSQQV8Em-29" edge="1">
          <mxGeometry relative="1" as="geometry" />
        </mxCell>
        <mxCell id="O0OFPvEYjbLhxSQQV8Em-32" value="address" style="swimlane;fontStyle=0;childLayout=stackLayout;horizontal=1;startSize=26;horizontalStack=0;resizeParent=1;resizeParentMax=0;resizeLast=0;collapsible=1;marginBottom=0;align=center;fontSize=14;" parent="1" vertex="1">
          <mxGeometry x="220" y="634" width="80" height="206" as="geometry" />
        </mxCell>
        <mxCell id="O0OFPvEYjbLhxSQQV8Em-33" value="country&amp;nbsp; &amp;nbsp;Str" style="text;strokeColor=none;fillColor=none;spacingLeft=4;spacingRight=4;overflow=hidden;rotatable=0;points=[[0,0.5],[1,0.5]];portConstraint=eastwest;fontSize=12;whiteSpace=wrap;html=1;" parent="O0OFPvEYjbLhxSQQV8Em-32" vertex="1">
          <mxGeometry y="26" width="80" height="30" as="geometry" />
        </mxCell>
        <mxCell id="O0OFPvEYjbLhxSQQV8Em-34" value="street1&amp;nbsp; &amp;nbsp; Str" style="text;strokeColor=none;fillColor=none;spacingLeft=4;spacingRight=4;overflow=hidden;rotatable=0;points=[[0,0.5],[1,0.5]];portConstraint=eastwest;fontSize=12;whiteSpace=wrap;html=1;" parent="O0OFPvEYjbLhxSQQV8Em-32" vertex="1">
          <mxGeometry y="56" width="80" height="30" as="geometry" />
        </mxCell>
        <mxCell id="O0OFPvEYjbLhxSQQV8Em-35" value="street2&amp;nbsp; &amp;nbsp; Str" style="text;strokeColor=none;fillColor=none;spacingLeft=4;spacingRight=4;overflow=hidden;rotatable=0;points=[[0,0.5],[1,0.5]];portConstraint=eastwest;fontSize=12;whiteSpace=wrap;html=1;" parent="O0OFPvEYjbLhxSQQV8Em-32" vertex="1">
          <mxGeometry y="86" width="80" height="30" as="geometry" />
        </mxCell>
        <mxCell id="O0OFPvEYjbLhxSQQV8Em-36" value="city&amp;nbsp; &amp;nbsp; &amp;nbsp; &amp;nbsp; &amp;nbsp; Str" style="text;strokeColor=none;fillColor=none;spacingLeft=4;spacingRight=4;overflow=hidden;rotatable=0;points=[[0,0.5],[1,0.5]];portConstraint=eastwest;fontSize=12;whiteSpace=wrap;html=1;" parent="O0OFPvEYjbLhxSQQV8Em-32" vertex="1">
          <mxGeometry y="116" width="80" height="30" as="geometry" />
        </mxCell>
        <mxCell id="O0OFPvEYjbLhxSQQV8Em-37" value="province&amp;nbsp; Str" style="text;strokeColor=none;fillColor=none;spacingLeft=4;spacingRight=4;overflow=hidden;rotatable=0;points=[[0,0.5],[1,0.5]];portConstraint=eastwest;fontSize=12;whiteSpace=wrap;html=1;" parent="O0OFPvEYjbLhxSQQV8Em-32" vertex="1">
          <mxGeometry y="146" width="80" height="30" as="geometry" />
        </mxCell>
        <mxCell id="O0OFPvEYjbLhxSQQV8Em-38" value="zip&amp;nbsp; &amp;nbsp; &amp;nbsp; &amp;nbsp; &amp;nbsp; &amp;nbsp;Str" style="text;strokeColor=none;fillColor=none;spacingLeft=4;spacingRight=4;overflow=hidden;rotatable=0;points=[[0,0.5],[1,0.5]];portConstraint=eastwest;fontSize=12;whiteSpace=wrap;html=1;" parent="O0OFPvEYjbLhxSQQV8Em-32" vertex="1">
          <mxGeometry y="176" width="80" height="30" as="geometry" />
        </mxCell>
        <mxCell id="U3T1-o6_RSGCVByQ93NV-3" style="edgeStyle=orthogonalEdgeStyle;rounded=0;orthogonalLoop=1;jettySize=auto;html=1;exitX=0.5;exitY=0;exitDx=0;exitDy=0;entryX=1;entryY=0.5;entryDx=0;entryDy=0;startArrow=ERone;startFill=0;endArrow=ERone;endFill=0;" parent="1" source="O0OFPvEYjbLhxSQQV8Em-39" target="O0OFPvEYjbLhxSQQV8Em-28" edge="1">
          <mxGeometry relative="1" as="geometry" />
        </mxCell>
        <mxCell id="O0OFPvEYjbLhxSQQV8Em-39" value="profile" style="swimlane;fontStyle=0;childLayout=stackLayout;horizontal=1;startSize=26;horizontalStack=0;resizeParent=1;resizeParentMax=0;resizeLast=0;collapsible=1;marginBottom=0;align=center;fontSize=14;" parent="1" vertex="1">
          <mxGeometry x="450" y="634" width="100" height="146" as="geometry" />
        </mxCell>
        <mxCell id="O0OFPvEYjbLhxSQQV8Em-40" value="firstname&amp;nbsp; &amp;nbsp; &amp;nbsp; &amp;nbsp;Str" style="text;strokeColor=none;fillColor=none;spacingLeft=4;spacingRight=4;overflow=hidden;rotatable=0;points=[[0,0.5],[1,0.5]];portConstraint=eastwest;fontSize=12;whiteSpace=wrap;html=1;" parent="O0OFPvEYjbLhxSQQV8Em-39" vertex="1">
          <mxGeometry y="26" width="100" height="30" as="geometry" />
        </mxCell>
        <mxCell id="O0OFPvEYjbLhxSQQV8Em-41" value="lastname&amp;nbsp; &amp;nbsp; &amp;nbsp; &amp;nbsp;Str" style="text;strokeColor=none;fillColor=none;spacingLeft=4;spacingRight=4;overflow=hidden;rotatable=0;points=[[0,0.5],[1,0.5]];portConstraint=eastwest;fontSize=12;whiteSpace=wrap;html=1;" parent="O0OFPvEYjbLhxSQQV8Em-39" vertex="1">
          <mxGeometry y="56" width="100" height="30" as="geometry" />
        </mxCell>
        <mxCell id="O0OFPvEYjbLhxSQQV8Em-42" value="email&amp;nbsp; &amp;nbsp; &amp;nbsp; &amp;nbsp; &amp;nbsp; &amp;nbsp; &amp;nbsp;Str" style="text;strokeColor=none;fillColor=none;spacingLeft=4;spacingRight=4;overflow=hidden;rotatable=0;points=[[0,0.5],[1,0.5]];portConstraint=eastwest;fontSize=12;whiteSpace=wrap;html=1;" parent="O0OFPvEYjbLhxSQQV8Em-39" vertex="1">
          <mxGeometry y="86" width="100" height="30" as="geometry" />
        </mxCell>
        <mxCell id="kiQ_7PnlWE18CKEF-a6Q-37" value="dateofbirth&amp;nbsp; Date" style="text;strokeColor=none;fillColor=none;spacingLeft=4;spacingRight=4;overflow=hidden;rotatable=0;points=[[0,0.5],[1,0.5]];portConstraint=eastwest;fontSize=12;whiteSpace=wrap;html=1;" vertex="1" parent="O0OFPvEYjbLhxSQQV8Em-39">
          <mxGeometry y="116" width="100" height="30" as="geometry" />
        </mxCell>
        <mxCell id="O0OFPvEYjbLhxSQQV8Em-44" value="payments" style="swimlane;fontStyle=0;childLayout=stackLayout;horizontal=1;startSize=26;horizontalStack=0;resizeParent=1;resizeParentMax=0;resizeLast=0;collapsible=1;marginBottom=0;align=center;fontSize=14;" parent="1" vertex="1">
          <mxGeometry x="10" y="306" width="100" height="176" as="geometry" />
        </mxCell>
        <mxCell id="O0OFPvEYjbLhxSQQV8Em-45" value="_id&amp;nbsp; &amp;nbsp; &amp;nbsp; &amp;nbsp; ObjectId" style="text;strokeColor=none;fillColor=none;spacingLeft=4;spacingRight=4;overflow=hidden;rotatable=0;points=[[0,0.5],[1,0.5]];portConstraint=eastwest;fontSize=12;whiteSpace=wrap;html=1;" parent="O0OFPvEYjbLhxSQQV8Em-44" vertex="1">
          <mxGeometry y="26" width="100" height="30" as="geometry" />
        </mxCell>
        <mxCell id="O0OFPvEYjbLhxSQQV8Em-46" value="userid&amp;nbsp; &amp;nbsp;ObjectId" style="text;strokeColor=none;fillColor=none;spacingLeft=4;spacingRight=4;overflow=hidden;rotatable=0;points=[[0,0.5],[1,0.5]];portConstraint=eastwest;fontSize=12;whiteSpace=wrap;html=1;" parent="O0OFPvEYjbLhxSQQV8Em-44" vertex="1">
          <mxGeometry y="56" width="100" height="30" as="geometry" />
        </mxCell>
        <mxCell id="O0OFPvEYjbLhxSQQV8Em-47" value="method&amp;nbsp; &amp;nbsp; &amp;nbsp; &amp;nbsp; &amp;nbsp; Str" style="text;strokeColor=none;fillColor=none;spacingLeft=4;spacingRight=4;overflow=hidden;rotatable=0;points=[[0,0.5],[1,0.5]];portConstraint=eastwest;fontSize=12;whiteSpace=wrap;html=1;" parent="O0OFPvEYjbLhxSQQV8Em-44" vertex="1">
          <mxGeometry y="86" width="100" height="30" as="geometry" />
        </mxCell>
        <mxCell id="O0OFPvEYjbLhxSQQV8Em-48" value="card&amp;nbsp; &amp;nbsp; &amp;nbsp; &amp;nbsp; &amp;nbsp; &amp;nbsp; &amp;nbsp; &amp;nbsp;Str" style="text;strokeColor=none;fillColor=none;spacingLeft=4;spacingRight=4;overflow=hidden;rotatable=0;points=[[0,0.5],[1,0.5]];portConstraint=eastwest;fontSize=12;whiteSpace=wrap;html=1;" parent="O0OFPvEYjbLhxSQQV8Em-44" vertex="1">
          <mxGeometry y="116" width="100" height="30" as="geometry" />
        </mxCell>
        <mxCell id="O0OFPvEYjbLhxSQQV8Em-49" value="status&amp;nbsp; &amp;nbsp; &amp;nbsp; &amp;nbsp; &amp;nbsp; &amp;nbsp; Str" style="text;strokeColor=none;fillColor=none;spacingLeft=4;spacingRight=4;overflow=hidden;rotatable=0;points=[[0,0.5],[1,0.5]];portConstraint=eastwest;fontSize=12;whiteSpace=wrap;html=1;" parent="O0OFPvEYjbLhxSQQV8Em-44" vertex="1">
          <mxGeometry y="146" width="100" height="30" as="geometry" />
        </mxCell>
        <mxCell id="U3T1-o6_RSGCVByQ93NV-6" style="edgeStyle=orthogonalEdgeStyle;rounded=0;orthogonalLoop=1;jettySize=auto;html=1;exitX=0.5;exitY=0;exitDx=0;exitDy=0;entryX=1;entryY=0.5;entryDx=0;entryDy=0;endArrow=ERone;endFill=0;startArrow=ERmany;startFill=0;" parent="1" source="O0OFPvEYjbLhxSQQV8Em-50" target="O0OFPvEYjbLhxSQQV8Em-48" edge="1">
          <mxGeometry relative="1" as="geometry" />
        </mxCell>
        <mxCell id="O0OFPvEYjbLhxSQQV8Em-50" value="card" style="swimlane;fontStyle=0;childLayout=stackLayout;horizontal=1;startSize=26;horizontalStack=0;resizeParent=1;resizeParentMax=0;resizeLast=0;collapsible=1;marginBottom=0;align=center;fontSize=14;" parent="1" vertex="1">
          <mxGeometry x="80" y="550" width="110" height="266" as="geometry" />
        </mxCell>
        <mxCell id="O0OFPvEYjbLhxSQQV8Em-51" value="type&amp;nbsp; &amp;nbsp; &amp;nbsp; &amp;nbsp; &amp;nbsp; &amp;nbsp; &amp;nbsp; &amp;nbsp; &amp;nbsp; Str" style="text;strokeColor=none;fillColor=none;spacingLeft=4;spacingRight=4;overflow=hidden;rotatable=0;points=[[0,0.5],[1,0.5]];portConstraint=eastwest;fontSize=12;whiteSpace=wrap;html=1;" parent="O0OFPvEYjbLhxSQQV8Em-50" vertex="1">
          <mxGeometry y="26" width="110" height="30" as="geometry" />
        </mxCell>
        <mxCell id="O0OFPvEYjbLhxSQQV8Em-52" value="number&amp;nbsp; &amp;nbsp; &amp;nbsp; &amp;nbsp; &amp;nbsp;Int32" style="text;strokeColor=none;fillColor=none;spacingLeft=4;spacingRight=4;overflow=hidden;rotatable=0;points=[[0,0.5],[1,0.5]];portConstraint=eastwest;fontSize=12;whiteSpace=wrap;html=1;" parent="O0OFPvEYjbLhxSQQV8Em-50" vertex="1">
          <mxGeometry y="56" width="110" height="30" as="geometry" />
        </mxCell>
        <mxCell id="O0OFPvEYjbLhxSQQV8Em-53" value="name&amp;nbsp; &amp;nbsp; &amp;nbsp; &amp;nbsp; &amp;nbsp; &amp;nbsp; &amp;nbsp; &amp;nbsp; Str" style="text;strokeColor=none;fillColor=none;spacingLeft=4;spacingRight=4;overflow=hidden;rotatable=0;points=[[0,0.5],[1,0.5]];portConstraint=eastwest;fontSize=12;whiteSpace=wrap;html=1;" parent="O0OFPvEYjbLhxSQQV8Em-50" vertex="1">
          <mxGeometry y="86" width="110" height="30" as="geometry" />
        </mxCell>
        <mxCell id="kiQ_7PnlWE18CKEF-a6Q-2" value="exiryday&amp;nbsp; &amp;nbsp; &amp;nbsp; &amp;nbsp; Int32" style="text;strokeColor=none;fillColor=none;spacingLeft=4;spacingRight=4;overflow=hidden;rotatable=0;points=[[0,0.5],[1,0.5]];portConstraint=eastwest;fontSize=12;whiteSpace=wrap;html=1;" vertex="1" parent="O0OFPvEYjbLhxSQQV8Em-50">
          <mxGeometry y="116" width="110" height="30" as="geometry" />
        </mxCell>
        <mxCell id="O0OFPvEYjbLhxSQQV8Em-54" value="expirymonth&amp;nbsp; Int32" style="text;strokeColor=none;fillColor=none;spacingLeft=4;spacingRight=4;overflow=hidden;rotatable=0;points=[[0,0.5],[1,0.5]];portConstraint=eastwest;fontSize=12;whiteSpace=wrap;html=1;" parent="O0OFPvEYjbLhxSQQV8Em-50" vertex="1">
          <mxGeometry y="146" width="110" height="30" as="geometry" />
        </mxCell>
        <mxCell id="O0OFPvEYjbLhxSQQV8Em-55" value="expiryyear&amp;nbsp; &amp;nbsp; &amp;nbsp;Int32" style="text;strokeColor=none;fillColor=none;spacingLeft=4;spacingRight=4;overflow=hidden;rotatable=0;points=[[0,0.5],[1,0.5]];portConstraint=eastwest;fontSize=12;whiteSpace=wrap;html=1;" parent="O0OFPvEYjbLhxSQQV8Em-50" vertex="1">
          <mxGeometry y="176" width="110" height="30" as="geometry" />
        </mxCell>
        <mxCell id="O0OFPvEYjbLhxSQQV8Em-56" value="cvv&amp;nbsp; &amp;nbsp; &amp;nbsp; &amp;nbsp; &amp;nbsp; &amp;nbsp; &amp;nbsp; &amp;nbsp; Int32" style="text;strokeColor=none;fillColor=none;spacingLeft=4;spacingRight=4;overflow=hidden;rotatable=0;points=[[0,0.5],[1,0.5]];portConstraint=eastwest;fontSize=12;whiteSpace=wrap;html=1;" parent="O0OFPvEYjbLhxSQQV8Em-50" vertex="1">
          <mxGeometry y="206" width="110" height="30" as="geometry" />
        </mxCell>
        <mxCell id="O0OFPvEYjbLhxSQQV8Em-57" value="verified&amp;nbsp; &amp;nbsp; &amp;nbsp;Boolean" style="text;strokeColor=none;fillColor=none;spacingLeft=4;spacingRight=4;overflow=hidden;rotatable=0;points=[[0,0.5],[1,0.5]];portConstraint=eastwest;fontSize=12;whiteSpace=wrap;html=1;" parent="O0OFPvEYjbLhxSQQV8Em-50" vertex="1">
          <mxGeometry y="236" width="110" height="30" as="geometry" />
        </mxCell>
        <mxCell id="O0OFPvEYjbLhxSQQV8Em-58" value="products" style="swimlane;fontStyle=0;childLayout=stackLayout;horizontal=1;startSize=26;horizontalStack=0;resizeParent=1;resizeParentMax=0;resizeLast=0;collapsible=1;marginBottom=0;align=center;fontSize=14;" parent="1" vertex="1">
          <mxGeometry x="-225" y="270" width="90" height="236" as="geometry" />
        </mxCell>
        <mxCell id="O0OFPvEYjbLhxSQQV8Em-59" value="_id&amp;nbsp; &amp;nbsp; &amp;nbsp;ObjectId" style="text;strokeColor=none;fillColor=none;spacingLeft=4;spacingRight=4;overflow=hidden;rotatable=0;points=[[0,0.5],[1,0.5]];portConstraint=eastwest;fontSize=12;whiteSpace=wrap;html=1;" parent="O0OFPvEYjbLhxSQQV8Em-58" vertex="1">
          <mxGeometry y="26" width="90" height="30" as="geometry" />
        </mxCell>
        <mxCell id="O0OFPvEYjbLhxSQQV8Em-60" value="name&amp;nbsp; &amp;nbsp; &amp;nbsp; &amp;nbsp; &amp;nbsp; Str" style="text;strokeColor=none;fillColor=none;spacingLeft=4;spacingRight=4;overflow=hidden;rotatable=0;points=[[0,0.5],[1,0.5]];portConstraint=eastwest;fontSize=12;whiteSpace=wrap;html=1;" parent="O0OFPvEYjbLhxSQQV8Em-58" vertex="1">
          <mxGeometry y="56" width="90" height="30" as="geometry" />
        </mxCell>
        <mxCell id="O0OFPvEYjbLhxSQQV8Em-61" value="articleno&amp;nbsp; Int32" style="text;strokeColor=none;fillColor=none;spacingLeft=4;spacingRight=4;overflow=hidden;rotatable=0;points=[[0,0.5],[1,0.5]];portConstraint=eastwest;fontSize=12;whiteSpace=wrap;html=1;" parent="O0OFPvEYjbLhxSQQV8Em-58" vertex="1">
          <mxGeometry y="86" width="90" height="30" as="geometry" />
        </mxCell>
        <mxCell id="O0OFPvEYjbLhxSQQV8Em-62" value="price&amp;nbsp; &amp;nbsp; &amp;nbsp; &amp;nbsp;Int32" style="text;strokeColor=none;fillColor=none;spacingLeft=4;spacingRight=4;overflow=hidden;rotatable=0;points=[[0,0.5],[1,0.5]];portConstraint=eastwest;fontSize=12;whiteSpace=wrap;html=1;" parent="O0OFPvEYjbLhxSQQV8Em-58" vertex="1">
          <mxGeometry y="116" width="90" height="30" as="geometry" />
        </mxCell>
        <mxCell id="O0OFPvEYjbLhxSQQV8Em-63" value="release&amp;nbsp; &amp;nbsp; Date" style="text;strokeColor=none;fillColor=none;spacingLeft=4;spacingRight=4;overflow=hidden;rotatable=0;points=[[0,0.5],[1,0.5]];portConstraint=eastwest;fontSize=12;whiteSpace=wrap;html=1;" parent="O0OFPvEYjbLhxSQQV8Em-58" vertex="1">
          <mxGeometry y="146" width="90" height="30" as="geometry" />
        </mxCell>
        <mxCell id="O0OFPvEYjbLhxSQQV8Em-64" value="maker&amp;nbsp; &amp;nbsp; &amp;nbsp;Array" style="text;strokeColor=none;fillColor=none;spacingLeft=4;spacingRight=4;overflow=hidden;rotatable=0;points=[[0,0.5],[1,0.5]];portConstraint=eastwest;fontSize=12;whiteSpace=wrap;html=1;" parent="O0OFPvEYjbLhxSQQV8Em-58" vertex="1">
          <mxGeometry y="176" width="90" height="30" as="geometry" />
        </mxCell>
        <mxCell id="O0OFPvEYjbLhxSQQV8Em-65" value="category Array" style="text;strokeColor=none;fillColor=none;spacingLeft=4;spacingRight=4;overflow=hidden;rotatable=0;points=[[0,0.5],[1,0.5]];portConstraint=eastwest;fontSize=12;whiteSpace=wrap;html=1;" parent="O0OFPvEYjbLhxSQQV8Em-58" vertex="1">
          <mxGeometry y="206" width="90" height="30" as="geometry" />
        </mxCell>
        <mxCell id="U3T1-o6_RSGCVByQ93NV-7" style="edgeStyle=orthogonalEdgeStyle;rounded=0;orthogonalLoop=1;jettySize=auto;html=1;exitX=0.5;exitY=0;exitDx=0;exitDy=0;entryX=1;entryY=0.5;entryDx=0;entryDy=0;endArrow=ERone;endFill=0;startArrow=ERmany;startFill=0;" parent="1" source="O0OFPvEYjbLhxSQQV8Em-66" target="O0OFPvEYjbLhxSQQV8Em-64" edge="1">
          <mxGeometry relative="1" as="geometry" />
        </mxCell>
        <mxCell id="O0OFPvEYjbLhxSQQV8Em-66" value="maker" style="swimlane;fontStyle=0;childLayout=stackLayout;horizontal=1;startSize=26;horizontalStack=0;resizeParent=1;resizeParentMax=0;resizeLast=0;collapsible=1;marginBottom=0;align=center;fontSize=14;" parent="1" vertex="1">
          <mxGeometry x="-110" y="550" width="90" height="116" as="geometry" />
        </mxCell>
        <mxCell id="O0OFPvEYjbLhxSQQV8Em-67" value="make&amp;nbsp; &amp;nbsp; &amp;nbsp; &amp;nbsp; &amp;nbsp; Str" style="text;strokeColor=none;fillColor=none;spacingLeft=4;spacingRight=4;overflow=hidden;rotatable=0;points=[[0,0.5],[1,0.5]];portConstraint=eastwest;fontSize=12;whiteSpace=wrap;html=1;" parent="O0OFPvEYjbLhxSQQV8Em-66" vertex="1">
          <mxGeometry y="26" width="90" height="30" as="geometry" />
        </mxCell>
        <mxCell id="O0OFPvEYjbLhxSQQV8Em-68" value="quantity&amp;nbsp; &amp;nbsp;Int32" style="text;strokeColor=none;fillColor=none;spacingLeft=4;spacingRight=4;overflow=hidden;rotatable=0;points=[[0,0.5],[1,0.5]];portConstraint=eastwest;fontSize=12;whiteSpace=wrap;html=1;" parent="O0OFPvEYjbLhxSQQV8Em-66" vertex="1">
          <mxGeometry y="56" width="90" height="30" as="geometry" />
        </mxCell>
        <mxCell id="O0OFPvEYjbLhxSQQV8Em-69" value="model&amp;nbsp; &amp;nbsp; &amp;nbsp; &amp;nbsp; &amp;nbsp;Str" style="text;strokeColor=none;fillColor=none;spacingLeft=4;spacingRight=4;overflow=hidden;rotatable=0;points=[[0,0.5],[1,0.5]];portConstraint=eastwest;fontSize=12;whiteSpace=wrap;html=1;" parent="O0OFPvEYjbLhxSQQV8Em-66" vertex="1">
          <mxGeometry y="86" width="90" height="30" as="geometry" />
        </mxCell>
        <mxCell id="U3T1-o6_RSGCVByQ93NV-8" style="edgeStyle=orthogonalEdgeStyle;rounded=0;orthogonalLoop=1;jettySize=auto;html=1;exitX=0.5;exitY=0;exitDx=0;exitDy=0;entryX=0;entryY=0.5;entryDx=0;entryDy=0;endArrow=ERone;endFill=0;startArrow=ERmany;startFill=0;" parent="1" source="O0OFPvEYjbLhxSQQV8Em-70" target="O0OFPvEYjbLhxSQQV8Em-65" edge="1">
          <mxGeometry relative="1" as="geometry" />
        </mxCell>
        <mxCell id="O0OFPvEYjbLhxSQQV8Em-70" value="category" style="swimlane;fontStyle=0;childLayout=stackLayout;horizontal=1;startSize=26;horizontalStack=0;resizeParent=1;resizeParentMax=0;resizeLast=0;collapsible=1;marginBottom=0;align=center;fontSize=14;" parent="1" vertex="1">
          <mxGeometry x="-320" y="536" width="85" height="146" as="geometry" />
        </mxCell>
        <mxCell id="O0OFPvEYjbLhxSQQV8Em-71" value="category&amp;nbsp; &amp;nbsp; Str" style="text;strokeColor=none;fillColor=none;spacingLeft=4;spacingRight=4;overflow=hidden;rotatable=0;points=[[0,0.5],[1,0.5]];portConstraint=eastwest;fontSize=12;whiteSpace=wrap;html=1;" parent="O0OFPvEYjbLhxSQQV8Em-70" vertex="1">
          <mxGeometry y="26" width="85" height="30" as="geometry" />
        </mxCell>
        <mxCell id="O0OFPvEYjbLhxSQQV8Em-72" value="category&amp;nbsp; &amp;nbsp; Str" style="text;strokeColor=none;fillColor=none;spacingLeft=4;spacingRight=4;overflow=hidden;rotatable=0;points=[[0,0.5],[1,0.5]];portConstraint=eastwest;fontSize=12;whiteSpace=wrap;html=1;" parent="O0OFPvEYjbLhxSQQV8Em-70" vertex="1">
          <mxGeometry y="56" width="85" height="30" as="geometry" />
        </mxCell>
        <mxCell id="O0OFPvEYjbLhxSQQV8Em-73" value="category&amp;nbsp; &amp;nbsp; Str" style="text;strokeColor=none;fillColor=none;spacingLeft=4;spacingRight=4;overflow=hidden;rotatable=0;points=[[0,0.5],[1,0.5]];portConstraint=eastwest;fontSize=12;whiteSpace=wrap;html=1;" parent="O0OFPvEYjbLhxSQQV8Em-70" vertex="1">
          <mxGeometry y="86" width="85" height="30" as="geometry" />
        </mxCell>
        <mxCell id="O0OFPvEYjbLhxSQQV8Em-74" value="category&amp;nbsp; &amp;nbsp; Str" style="text;strokeColor=none;fillColor=none;spacingLeft=4;spacingRight=4;overflow=hidden;rotatable=0;points=[[0,0.5],[1,0.5]];portConstraint=eastwest;fontSize=12;whiteSpace=wrap;html=1;" parent="O0OFPvEYjbLhxSQQV8Em-70" vertex="1">
          <mxGeometry y="116" width="85" height="30" as="geometry" />
        </mxCell>
        <mxCell id="O0OFPvEYjbLhxSQQV8Em-75" value="orders" style="swimlane;fontStyle=0;childLayout=stackLayout;horizontal=1;startSize=26;horizontalStack=0;resizeParent=1;resizeParentMax=0;resizeLast=0;collapsible=1;marginBottom=0;align=center;fontSize=14;" parent="1" vertex="1">
          <mxGeometry x="-670" y="211" width="160" height="266" as="geometry" />
        </mxCell>
        <mxCell id="O0OFPvEYjbLhxSQQV8Em-76" value="_id&amp;nbsp; &amp;nbsp; &amp;nbsp; &amp;nbsp; &amp;nbsp; &amp;nbsp; &amp;nbsp; &amp;nbsp; &amp;nbsp; &amp;nbsp; &amp;nbsp; &amp;nbsp; &amp;nbsp; ObjectId" style="text;strokeColor=none;fillColor=none;spacingLeft=4;spacingRight=4;overflow=hidden;rotatable=0;points=[[0,0.5],[1,0.5]];portConstraint=eastwest;fontSize=12;whiteSpace=wrap;html=1;" parent="O0OFPvEYjbLhxSQQV8Em-75" vertex="1">
          <mxGeometry y="26" width="160" height="30" as="geometry" />
        </mxCell>
        <mxCell id="O0OFPvEYjbLhxSQQV8Em-77" value="userid&amp;nbsp; &amp;nbsp; &amp;nbsp; &amp;nbsp; &amp;nbsp; &amp;nbsp; &amp;nbsp; &amp;nbsp; &amp;nbsp; &amp;nbsp; &amp;nbsp;ObjectId" style="text;strokeColor=none;fillColor=none;spacingLeft=4;spacingRight=4;overflow=hidden;rotatable=0;points=[[0,0.5],[1,0.5]];portConstraint=eastwest;fontSize=12;whiteSpace=wrap;html=1;" parent="O0OFPvEYjbLhxSQQV8Em-75" vertex="1">
          <mxGeometry y="56" width="160" height="30" as="geometry" />
        </mxCell>
        <mxCell id="O0OFPvEYjbLhxSQQV8Em-78" value="paymentstatus&amp;nbsp; &amp;nbsp; &amp;nbsp; &amp;nbsp; &amp;nbsp; &amp;nbsp; &amp;nbsp; &amp;nbsp; Str" style="text;strokeColor=none;fillColor=none;spacingLeft=4;spacingRight=4;overflow=hidden;rotatable=0;points=[[0,0.5],[1,0.5]];portConstraint=eastwest;fontSize=12;whiteSpace=wrap;html=1;" parent="O0OFPvEYjbLhxSQQV8Em-75" vertex="1">
          <mxGeometry y="86" width="160" height="30" as="geometry" />
        </mxCell>
        <mxCell id="O0OFPvEYjbLhxSQQV8Em-79" value="status&amp;nbsp; &amp;nbsp; &amp;nbsp; &amp;nbsp; &amp;nbsp; &amp;nbsp; &amp;nbsp; &amp;nbsp; &amp;nbsp; &amp;nbsp; &amp;nbsp; &amp;nbsp; &amp;nbsp; &amp;nbsp; &amp;nbsp; Str" style="text;strokeColor=none;fillColor=none;spacingLeft=4;spacingRight=4;overflow=hidden;rotatable=0;points=[[0,0.5],[1,0.5]];portConstraint=eastwest;fontSize=12;whiteSpace=wrap;html=1;" parent="O0OFPvEYjbLhxSQQV8Em-75" vertex="1">
          <mxGeometry y="116" width="160" height="30" as="geometry" />
        </mxCell>
        <mxCell id="O0OFPvEYjbLhxSQQV8Em-80" value="amount&amp;nbsp; &amp;nbsp; &amp;nbsp; &amp;nbsp; &amp;nbsp; &amp;nbsp; &amp;nbsp; &amp;nbsp; &amp;nbsp; &amp;nbsp; &amp;nbsp; &amp;nbsp; Int32" style="text;strokeColor=none;fillColor=none;spacingLeft=4;spacingRight=4;overflow=hidden;rotatable=0;points=[[0,0.5],[1,0.5]];portConstraint=eastwest;fontSize=12;whiteSpace=wrap;html=1;" parent="O0OFPvEYjbLhxSQQV8Em-75" vertex="1">
          <mxGeometry y="146" width="160" height="30" as="geometry" />
        </mxCell>
        <mxCell id="O0OFPvEYjbLhxSQQV8Em-81" value="items&amp;nbsp; &amp;nbsp; &amp;nbsp; &amp;nbsp; &amp;nbsp; &amp;nbsp; &amp;nbsp; &amp;nbsp; &amp;nbsp; &amp;nbsp; &amp;nbsp; &amp;nbsp; &amp;nbsp; &amp;nbsp;Array" style="text;strokeColor=none;fillColor=none;spacingLeft=4;spacingRight=4;overflow=hidden;rotatable=0;points=[[0,0.5],[1,0.5]];portConstraint=eastwest;fontSize=12;whiteSpace=wrap;html=1;" parent="O0OFPvEYjbLhxSQQV8Em-75" vertex="1">
          <mxGeometry y="176" width="160" height="30" as="geometry" />
        </mxCell>
        <mxCell id="O0OFPvEYjbLhxSQQV8Em-82" value="shippingaddress&amp;nbsp; &amp;nbsp; &amp;nbsp; &amp;nbsp; &amp;nbsp;Array" style="text;strokeColor=none;fillColor=none;spacingLeft=4;spacingRight=4;overflow=hidden;rotatable=0;points=[[0,0.5],[1,0.5]];portConstraint=eastwest;fontSize=12;whiteSpace=wrap;html=1;" parent="O0OFPvEYjbLhxSQQV8Em-75" vertex="1">
          <mxGeometry y="206" width="160" height="30" as="geometry" />
        </mxCell>
        <mxCell id="O0OFPvEYjbLhxSQQV8Em-83" value="billingorder&amp;nbsp; &amp;nbsp; &amp;nbsp; &amp;nbsp; &amp;nbsp; &amp;nbsp; &amp;nbsp; &amp;nbsp; &amp;nbsp;Array" style="text;strokeColor=none;fillColor=none;spacingLeft=4;spacingRight=4;overflow=hidden;rotatable=0;points=[[0,0.5],[1,0.5]];portConstraint=eastwest;fontSize=12;whiteSpace=wrap;html=1;" parent="O0OFPvEYjbLhxSQQV8Em-75" vertex="1">
          <mxGeometry y="236" width="160" height="30" as="geometry" />
        </mxCell>
        <mxCell id="U3T1-o6_RSGCVByQ93NV-26" style="edgeStyle=orthogonalEdgeStyle;rounded=0;orthogonalLoop=1;jettySize=auto;html=1;exitX=0.5;exitY=0;exitDx=0;exitDy=0;entryX=1;entryY=0.5;entryDx=0;entryDy=0;endArrow=ERone;endFill=0;startArrow=ERoneToMany;startFill=0;" parent="1" source="O0OFPvEYjbLhxSQQV8Em-91" target="O0OFPvEYjbLhxSQQV8Em-81" edge="1">
          <mxGeometry relative="1" as="geometry">
            <Array as="points">
              <mxPoint x="-590" y="700" />
              <mxPoint x="-380" y="700" />
              <mxPoint x="-380" y="402" />
            </Array>
          </mxGeometry>
        </mxCell>
        <mxCell id="O0OFPvEYjbLhxSQQV8Em-91" value="items" style="swimlane;fontStyle=0;childLayout=stackLayout;horizontal=1;startSize=26;horizontalStack=0;resizeParent=1;resizeParentMax=0;resizeLast=0;collapsible=1;marginBottom=0;align=center;fontSize=14;" parent="1" vertex="1">
          <mxGeometry x="-647.5" y="720" width="115" height="206" as="geometry" />
        </mxCell>
        <mxCell id="O0OFPvEYjbLhxSQQV8Em-92" value="name&amp;nbsp; &amp;nbsp; &amp;nbsp; &amp;nbsp; &amp;nbsp; &amp;nbsp; &amp;nbsp; &amp;nbsp; &amp;nbsp;Str" style="text;strokeColor=none;fillColor=none;spacingLeft=4;spacingRight=4;overflow=hidden;rotatable=0;points=[[0,0.5],[1,0.5]];portConstraint=eastwest;fontSize=12;whiteSpace=wrap;html=1;" parent="O0OFPvEYjbLhxSQQV8Em-91" vertex="1">
          <mxGeometry y="26" width="115" height="30" as="geometry" />
        </mxCell>
        <mxCell id="O0OFPvEYjbLhxSQQV8Em-93" value="quantity&amp;nbsp; &amp;nbsp; &amp;nbsp; &amp;nbsp; &amp;nbsp; Int32" style="text;strokeColor=none;fillColor=none;spacingLeft=4;spacingRight=4;overflow=hidden;rotatable=0;points=[[0,0.5],[1,0.5]];portConstraint=eastwest;fontSize=12;whiteSpace=wrap;html=1;" parent="O0OFPvEYjbLhxSQQV8Em-91" vertex="1">
          <mxGeometry y="56" width="115" height="30" as="geometry" />
        </mxCell>
        <mxCell id="O0OFPvEYjbLhxSQQV8Em-94" value="discounts&amp;nbsp; &amp;nbsp; &amp;nbsp; &amp;nbsp; Int32" style="text;strokeColor=none;fillColor=none;spacingLeft=4;spacingRight=4;overflow=hidden;rotatable=0;points=[[0,0.5],[1,0.5]];portConstraint=eastwest;fontSize=12;whiteSpace=wrap;html=1;" parent="O0OFPvEYjbLhxSQQV8Em-91" vertex="1">
          <mxGeometry y="86" width="115" height="30" as="geometry" />
        </mxCell>
        <mxCell id="O0OFPvEYjbLhxSQQV8Em-95" value="insurance&amp;nbsp; &amp;nbsp; &amp;nbsp; &amp;nbsp; &amp;nbsp; &amp;nbsp;Str" style="text;strokeColor=none;fillColor=none;spacingLeft=4;spacingRight=4;overflow=hidden;rotatable=0;points=[[0,0.5],[1,0.5]];portConstraint=eastwest;fontSize=12;whiteSpace=wrap;html=1;" parent="O0OFPvEYjbLhxSQQV8Em-91" vertex="1">
          <mxGeometry y="116" width="115" height="30" as="geometry" />
        </mxCell>
        <mxCell id="O0OFPvEYjbLhxSQQV8Em-104" value="includingvat&amp;nbsp; &amp;nbsp; Int32" style="text;strokeColor=none;fillColor=none;spacingLeft=4;spacingRight=4;overflow=hidden;rotatable=0;points=[[0,0.5],[1,0.5]];portConstraint=eastwest;fontSize=12;whiteSpace=wrap;html=1;" parent="O0OFPvEYjbLhxSQQV8Em-91" vertex="1">
          <mxGeometry y="146" width="115" height="30" as="geometry" />
        </mxCell>
        <mxCell id="O0OFPvEYjbLhxSQQV8Em-96" value="excludingvat&amp;nbsp; &amp;nbsp;Int32" style="text;strokeColor=none;fillColor=none;spacingLeft=4;spacingRight=4;overflow=hidden;rotatable=0;points=[[0,0.5],[1,0.5]];portConstraint=eastwest;fontSize=12;whiteSpace=wrap;html=1;" parent="O0OFPvEYjbLhxSQQV8Em-91" vertex="1">
          <mxGeometry y="176" width="115" height="30" as="geometry" />
        </mxCell>
        <mxCell id="U3T1-o6_RSGCVByQ93NV-4" style="edgeStyle=orthogonalEdgeStyle;rounded=0;orthogonalLoop=1;jettySize=auto;html=1;exitX=0.5;exitY=0;exitDx=0;exitDy=0;entryX=1;entryY=0.5;entryDx=0;entryDy=0;endArrow=ERone;endFill=0;startArrow=ERzeroToMany;startFill=0;" parent="1" source="O0OFPvEYjbLhxSQQV8Em-106" target="O0OFPvEYjbLhxSQQV8Em-110" edge="1">
          <mxGeometry relative="1" as="geometry">
            <Array as="points">
              <mxPoint x="380" y="540" />
              <mxPoint x="480" y="540" />
              <mxPoint x="480" y="467" />
            </Array>
          </mxGeometry>
        </mxCell>
        <mxCell id="O0OFPvEYjbLhxSQQV8Em-106" value="userreview" style="swimlane;fontStyle=0;childLayout=stackLayout;horizontal=1;startSize=30;horizontalStack=0;resizeParent=1;resizeParentMax=0;resizeLast=0;collapsible=1;marginBottom=0;whiteSpace=wrap;html=1;" parent="1" vertex="1">
          <mxGeometry x="330" y="634" width="100" height="120" as="geometry" />
        </mxCell>
        <mxCell id="kiQ_7PnlWE18CKEF-a6Q-1" value="product&amp;nbsp; &amp;nbsp; &amp;nbsp; &amp;nbsp; &amp;nbsp;Str" style="text;strokeColor=none;fillColor=none;align=left;verticalAlign=middle;spacingLeft=4;spacingRight=4;overflow=hidden;points=[[0,0.5],[1,0.5]];portConstraint=eastwest;rotatable=0;whiteSpace=wrap;html=1;" vertex="1" parent="O0OFPvEYjbLhxSQQV8Em-106">
          <mxGeometry y="30" width="100" height="30" as="geometry" />
        </mxCell>
        <mxCell id="O0OFPvEYjbLhxSQQV8Em-107" value="grade&amp;nbsp; &amp;nbsp; &amp;nbsp; &amp;nbsp; &amp;nbsp;Int32" style="text;strokeColor=none;fillColor=none;align=left;verticalAlign=middle;spacingLeft=4;spacingRight=4;overflow=hidden;points=[[0,0.5],[1,0.5]];portConstraint=eastwest;rotatable=0;whiteSpace=wrap;html=1;" parent="O0OFPvEYjbLhxSQQV8Em-106" vertex="1">
          <mxGeometry y="60" width="100" height="30" as="geometry" />
        </mxCell>
        <mxCell id="O0OFPvEYjbLhxSQQV8Em-108" value="comment&amp;nbsp; &amp;nbsp; &amp;nbsp; &amp;nbsp;Str" style="text;strokeColor=none;fillColor=none;align=left;verticalAlign=middle;spacingLeft=4;spacingRight=4;overflow=hidden;points=[[0,0.5],[1,0.5]];portConstraint=eastwest;rotatable=0;whiteSpace=wrap;html=1;" parent="O0OFPvEYjbLhxSQQV8Em-106" vertex="1">
          <mxGeometry y="90" width="100" height="30" as="geometry" />
        </mxCell>
        <mxCell id="kiQ_7PnlWE18CKEF-a6Q-34" style="edgeStyle=orthogonalEdgeStyle;rounded=0;orthogonalLoop=1;jettySize=auto;html=1;exitX=0.5;exitY=0;exitDx=0;exitDy=0;entryX=1;entryY=0.5;entryDx=0;entryDy=0;endArrow=ERone;endFill=0;startArrow=ERone;startFill=0;" edge="1" parent="1" source="kiQ_7PnlWE18CKEF-a6Q-4" target="O0OFPvEYjbLhxSQQV8Em-83">
          <mxGeometry relative="1" as="geometry" />
        </mxCell>
        <mxCell id="kiQ_7PnlWE18CKEF-a6Q-4" value="billingorder" style="swimlane;fontStyle=0;childLayout=stackLayout;horizontal=1;startSize=26;horizontalStack=0;resizeParent=1;resizeParentMax=0;resizeLast=0;collapsible=1;marginBottom=0;align=center;fontSize=14;" vertex="1" parent="1">
          <mxGeometry x="-500" y="482" width="80" height="206" as="geometry" />
        </mxCell>
        <mxCell id="kiQ_7PnlWE18CKEF-a6Q-5" value="country&amp;nbsp; &amp;nbsp; Str" style="text;strokeColor=none;fillColor=none;spacingLeft=4;spacingRight=4;overflow=hidden;rotatable=0;points=[[0,0.5],[1,0.5]];portConstraint=eastwest;fontSize=12;whiteSpace=wrap;html=1;" vertex="1" parent="kiQ_7PnlWE18CKEF-a6Q-4">
          <mxGeometry y="26" width="80" height="30" as="geometry" />
        </mxCell>
        <mxCell id="kiQ_7PnlWE18CKEF-a6Q-6" value="street1&amp;nbsp; &amp;nbsp; &amp;nbsp;Str" style="text;strokeColor=none;fillColor=none;spacingLeft=4;spacingRight=4;overflow=hidden;rotatable=0;points=[[0,0.5],[1,0.5]];portConstraint=eastwest;fontSize=12;whiteSpace=wrap;html=1;" vertex="1" parent="kiQ_7PnlWE18CKEF-a6Q-4">
          <mxGeometry y="56" width="80" height="30" as="geometry" />
        </mxCell>
        <mxCell id="kiQ_7PnlWE18CKEF-a6Q-7" value="street2&amp;nbsp; &amp;nbsp; &amp;nbsp;Str" style="text;strokeColor=none;fillColor=none;spacingLeft=4;spacingRight=4;overflow=hidden;rotatable=0;points=[[0,0.5],[1,0.5]];portConstraint=eastwest;fontSize=12;whiteSpace=wrap;html=1;" vertex="1" parent="kiQ_7PnlWE18CKEF-a6Q-4">
          <mxGeometry y="86" width="80" height="30" as="geometry" />
        </mxCell>
        <mxCell id="kiQ_7PnlWE18CKEF-a6Q-8" value="city&amp;nbsp; &amp;nbsp; &amp;nbsp; &amp;nbsp; &amp;nbsp; Str" style="text;strokeColor=none;fillColor=none;spacingLeft=4;spacingRight=4;overflow=hidden;rotatable=0;points=[[0,0.5],[1,0.5]];portConstraint=eastwest;fontSize=12;whiteSpace=wrap;html=1;" vertex="1" parent="kiQ_7PnlWE18CKEF-a6Q-4">
          <mxGeometry y="116" width="80" height="30" as="geometry" />
        </mxCell>
        <mxCell id="kiQ_7PnlWE18CKEF-a6Q-9" value="province&amp;nbsp; Str" style="text;strokeColor=none;fillColor=none;spacingLeft=4;spacingRight=4;overflow=hidden;rotatable=0;points=[[0,0.5],[1,0.5]];portConstraint=eastwest;fontSize=12;whiteSpace=wrap;html=1;" vertex="1" parent="kiQ_7PnlWE18CKEF-a6Q-4">
          <mxGeometry y="146" width="80" height="30" as="geometry" />
        </mxCell>
        <mxCell id="kiQ_7PnlWE18CKEF-a6Q-10" value="zip&amp;nbsp; &amp;nbsp; &amp;nbsp; &amp;nbsp; &amp;nbsp; &amp;nbsp;Str" style="text;strokeColor=none;fillColor=none;spacingLeft=4;spacingRight=4;overflow=hidden;rotatable=0;points=[[0,0.5],[1,0.5]];portConstraint=eastwest;fontSize=12;whiteSpace=wrap;html=1;" vertex="1" parent="kiQ_7PnlWE18CKEF-a6Q-4">
          <mxGeometry y="176" width="80" height="30" as="geometry" />
        </mxCell>
        <mxCell id="kiQ_7PnlWE18CKEF-a6Q-31" style="edgeStyle=orthogonalEdgeStyle;rounded=0;orthogonalLoop=1;jettySize=auto;html=1;exitX=0.5;exitY=0;exitDx=0;exitDy=0;entryX=0;entryY=0.5;entryDx=0;entryDy=0;startArrow=ERone;startFill=0;endArrow=ERone;endFill=0;" edge="1" parent="1" source="kiQ_7PnlWE18CKEF-a6Q-11" target="O0OFPvEYjbLhxSQQV8Em-82">
          <mxGeometry relative="1" as="geometry" />
        </mxCell>
        <mxCell id="kiQ_7PnlWE18CKEF-a6Q-11" value="shippingaddress" style="swimlane;fontStyle=0;childLayout=stackLayout;horizontal=1;startSize=26;horizontalStack=0;resizeParent=1;resizeParentMax=0;resizeLast=0;collapsible=1;marginBottom=0;align=center;fontSize=14;" vertex="1" parent="1">
          <mxGeometry x="-790" y="482" width="110" height="206" as="geometry" />
        </mxCell>
        <mxCell id="kiQ_7PnlWE18CKEF-a6Q-12" value="country&amp;nbsp; &amp;nbsp; &amp;nbsp; &amp;nbsp; &amp;nbsp; &amp;nbsp; &amp;nbsp;Str" style="text;strokeColor=none;fillColor=none;spacingLeft=4;spacingRight=4;overflow=hidden;rotatable=0;points=[[0,0.5],[1,0.5]];portConstraint=eastwest;fontSize=12;whiteSpace=wrap;html=1;" vertex="1" parent="kiQ_7PnlWE18CKEF-a6Q-11">
          <mxGeometry y="26" width="110" height="30" as="geometry" />
        </mxCell>
        <mxCell id="kiQ_7PnlWE18CKEF-a6Q-13" value="street1&amp;nbsp; &amp;nbsp; &amp;nbsp; &amp;nbsp; &amp;nbsp; &amp;nbsp; &amp;nbsp; Str" style="text;strokeColor=none;fillColor=none;spacingLeft=4;spacingRight=4;overflow=hidden;rotatable=0;points=[[0,0.5],[1,0.5]];portConstraint=eastwest;fontSize=12;whiteSpace=wrap;html=1;" vertex="1" parent="kiQ_7PnlWE18CKEF-a6Q-11">
          <mxGeometry y="56" width="110" height="30" as="geometry" />
        </mxCell>
        <mxCell id="kiQ_7PnlWE18CKEF-a6Q-14" value="street2&amp;nbsp; &amp;nbsp; &amp;nbsp; &amp;nbsp; &amp;nbsp; &amp;nbsp; &amp;nbsp; Str" style="text;strokeColor=none;fillColor=none;spacingLeft=4;spacingRight=4;overflow=hidden;rotatable=0;points=[[0,0.5],[1,0.5]];portConstraint=eastwest;fontSize=12;whiteSpace=wrap;html=1;" vertex="1" parent="kiQ_7PnlWE18CKEF-a6Q-11">
          <mxGeometry y="86" width="110" height="30" as="geometry" />
        </mxCell>
        <mxCell id="kiQ_7PnlWE18CKEF-a6Q-15" value="city&amp;nbsp; &amp;nbsp; &amp;nbsp; &amp;nbsp; &amp;nbsp; &amp;nbsp; &amp;nbsp; &amp;nbsp; &amp;nbsp; &amp;nbsp; Str" style="text;strokeColor=none;fillColor=none;spacingLeft=4;spacingRight=4;overflow=hidden;rotatable=0;points=[[0,0.5],[1,0.5]];portConstraint=eastwest;fontSize=12;whiteSpace=wrap;html=1;" vertex="1" parent="kiQ_7PnlWE18CKEF-a6Q-11">
          <mxGeometry y="116" width="110" height="30" as="geometry" />
        </mxCell>
        <mxCell id="kiQ_7PnlWE18CKEF-a6Q-16" value="province&amp;nbsp; &amp;nbsp; &amp;nbsp; &amp;nbsp; &amp;nbsp; &amp;nbsp;Str" style="text;strokeColor=none;fillColor=none;spacingLeft=4;spacingRight=4;overflow=hidden;rotatable=0;points=[[0,0.5],[1,0.5]];portConstraint=eastwest;fontSize=12;whiteSpace=wrap;html=1;" vertex="1" parent="kiQ_7PnlWE18CKEF-a6Q-11">
          <mxGeometry y="146" width="110" height="30" as="geometry" />
        </mxCell>
        <mxCell id="kiQ_7PnlWE18CKEF-a6Q-17" value="zip&amp;nbsp; &amp;nbsp; &amp;nbsp; &amp;nbsp; &amp;nbsp; &amp;nbsp; &amp;nbsp; &amp;nbsp; &amp;nbsp; &amp;nbsp; Str" style="text;strokeColor=none;fillColor=none;spacingLeft=4;spacingRight=4;overflow=hidden;rotatable=0;points=[[0,0.5],[1,0.5]];portConstraint=eastwest;fontSize=12;whiteSpace=wrap;html=1;" vertex="1" parent="kiQ_7PnlWE18CKEF-a6Q-11">
          <mxGeometry y="176" width="110" height="30" as="geometry" />
        </mxCell>
        <mxCell id="kiQ_7PnlWE18CKEF-a6Q-27" style="edgeStyle=orthogonalEdgeStyle;rounded=0;orthogonalLoop=1;jettySize=auto;html=1;exitX=0.5;exitY=0;exitDx=0;exitDy=0;entryX=0;entryY=0.5;entryDx=0;entryDy=0;endArrow=ERone;endFill=0;startArrow=ERoneToMany;startFill=0;" edge="1" parent="1" source="kiQ_7PnlWE18CKEF-a6Q-20" target="O0OFPvEYjbLhxSQQV8Em-31">
          <mxGeometry relative="1" as="geometry">
            <Array as="points">
              <mxPoint x="385" y="810" />
              <mxPoint x="310" y="810" />
              <mxPoint x="310" y="437" />
            </Array>
          </mxGeometry>
        </mxCell>
        <mxCell id="kiQ_7PnlWE18CKEF-a6Q-20" value="shippingaddress" style="swimlane;fontStyle=0;childLayout=stackLayout;horizontal=1;startSize=26;horizontalStack=0;resizeParent=1;resizeParentMax=0;resizeLast=0;collapsible=1;marginBottom=0;align=center;fontSize=14;" vertex="1" parent="1">
          <mxGeometry x="330" y="840" width="110" height="206" as="geometry" />
        </mxCell>
        <mxCell id="kiQ_7PnlWE18CKEF-a6Q-21" value="country&amp;nbsp; &amp;nbsp; &amp;nbsp; &amp;nbsp; &amp;nbsp; &amp;nbsp; &amp;nbsp;Str" style="text;strokeColor=none;fillColor=none;spacingLeft=4;spacingRight=4;overflow=hidden;rotatable=0;points=[[0,0.5],[1,0.5]];portConstraint=eastwest;fontSize=12;whiteSpace=wrap;html=1;" vertex="1" parent="kiQ_7PnlWE18CKEF-a6Q-20">
          <mxGeometry y="26" width="110" height="30" as="geometry" />
        </mxCell>
        <mxCell id="kiQ_7PnlWE18CKEF-a6Q-22" value="street1&amp;nbsp; &amp;nbsp; &amp;nbsp; &amp;nbsp; &amp;nbsp; &amp;nbsp; &amp;nbsp; Str" style="text;strokeColor=none;fillColor=none;spacingLeft=4;spacingRight=4;overflow=hidden;rotatable=0;points=[[0,0.5],[1,0.5]];portConstraint=eastwest;fontSize=12;whiteSpace=wrap;html=1;" vertex="1" parent="kiQ_7PnlWE18CKEF-a6Q-20">
          <mxGeometry y="56" width="110" height="30" as="geometry" />
        </mxCell>
        <mxCell id="kiQ_7PnlWE18CKEF-a6Q-23" value="street2&amp;nbsp; &amp;nbsp; &amp;nbsp; &amp;nbsp; &amp;nbsp; &amp;nbsp; &amp;nbsp; Str" style="text;strokeColor=none;fillColor=none;spacingLeft=4;spacingRight=4;overflow=hidden;rotatable=0;points=[[0,0.5],[1,0.5]];portConstraint=eastwest;fontSize=12;whiteSpace=wrap;html=1;" vertex="1" parent="kiQ_7PnlWE18CKEF-a6Q-20">
          <mxGeometry y="86" width="110" height="30" as="geometry" />
        </mxCell>
        <mxCell id="kiQ_7PnlWE18CKEF-a6Q-24" value="city&amp;nbsp; &amp;nbsp; &amp;nbsp; &amp;nbsp; &amp;nbsp; &amp;nbsp; &amp;nbsp; &amp;nbsp; &amp;nbsp; &amp;nbsp; Str" style="text;strokeColor=none;fillColor=none;spacingLeft=4;spacingRight=4;overflow=hidden;rotatable=0;points=[[0,0.5],[1,0.5]];portConstraint=eastwest;fontSize=12;whiteSpace=wrap;html=1;" vertex="1" parent="kiQ_7PnlWE18CKEF-a6Q-20">
          <mxGeometry y="116" width="110" height="30" as="geometry" />
        </mxCell>
        <mxCell id="kiQ_7PnlWE18CKEF-a6Q-25" value="province&amp;nbsp; &amp;nbsp; &amp;nbsp; &amp;nbsp; &amp;nbsp; &amp;nbsp;Str" style="text;strokeColor=none;fillColor=none;spacingLeft=4;spacingRight=4;overflow=hidden;rotatable=0;points=[[0,0.5],[1,0.5]];portConstraint=eastwest;fontSize=12;whiteSpace=wrap;html=1;" vertex="1" parent="kiQ_7PnlWE18CKEF-a6Q-20">
          <mxGeometry y="146" width="110" height="30" as="geometry" />
        </mxCell>
        <mxCell id="kiQ_7PnlWE18CKEF-a6Q-26" value="zip&amp;nbsp; &amp;nbsp; &amp;nbsp; &amp;nbsp; &amp;nbsp; &amp;nbsp; &amp;nbsp; &amp;nbsp; &amp;nbsp; &amp;nbsp; Str" style="text;strokeColor=none;fillColor=none;spacingLeft=4;spacingRight=4;overflow=hidden;rotatable=0;points=[[0,0.5],[1,0.5]];portConstraint=eastwest;fontSize=12;whiteSpace=wrap;html=1;" vertex="1" parent="kiQ_7PnlWE18CKEF-a6Q-20">
          <mxGeometry y="176" width="110" height="30" as="geometry" />
        </mxCell>
      </root>
    </mxGraphModel>
  </diagram>
</mxfile>
